<svg xmlns="http://www.w3.org/2000/svg" viewBox="0 0 400 300" role="img" aria-label="Illustration of a classroom session">
<rect width="400" height="300" fill="#EFE8D8"/>
<rect x="30" y="40" width="340" height="150" fill="#1B1F3B" rx="6"/>
<rect x="45" y="55" width="150" height="10" fill="#F7F3E9"/>
<rect x="45" y="75" width="220" height="8" fill="#E8A33D"/>
<rect x="45" y="95" width="180" height="8" fill="#F7F3E9" opacity="0.6"/>
<rect x="45" y="115" width="200" height="8" fill="#F7F3E9" opacity="0.6"/>
<g transform="translate(40,210)">
<circle cx="20" cy="10" r="14" fill="#2F6F63"/>
<rect x="4" y="26" width="32" height="40" rx="6" fill="#2F6F63"/>
</g>
<g transform="translate(110,210)">
<circle cx="20" cy="10" r="14" fill="#E8A33D"/>
<rect x="4" y="26" width="32" height="40" rx="6" fill="#E8A33D"/>
</g>
<g transform="translate(180,210)">
<circle cx="20" cy="10" r="14" fill="#2F6F63"/>
<rect x="4" y="26" width="32" height="40" rx="6" fill="#2F6F63"/>
</g>
<g transform="translate(250,210)">
<circle cx="20" cy="10" r="14" fill="#E8A33D"/>
<rect x="4" y="26" width="32" height="40" rx="6" fill="#E8A33D"/>
</g>
<g transform="translate(320,210)">
<circle cx="20" cy="10" r="14" fill="#2F6F63"/>
<rect x="4" y="26" width="32" height="40" rx="6" fill="#2F6F63"/>
</g>
</svg>
